<?xml version="1.0" encoding="UTF-8"?>
<svg id="Capa_1" data-name="Capa 1" xmlns="http://www.w3.org/2000/svg" viewBox="0 0 552.78 576.1">
  <defs>
    <style>
      .cls-1 {
        fill: none;
        stroke: #871a1e;
        stroke-miterlimit: 10;
      }
    </style>
  </defs>
  <path class="cls-1" d="M497.63,81.14h-170.81c-9.89-.57-15.91-3.74-19.42-6.24-11.57-8.24-10.11-19.33-25.46-46.35-5.71-10.05-9.22-14.34-14.07-17.9-6.93-5.09-14.71-7.31-22.83-8.22C226,.29,154.57-.3,57.91,1.84c-4.02-.68-19.36-2.78-33.72,6.7C9.85,18.01,2.02,35.37,3.56,53.63c-.38,13.61-.82,27.34-1.34,41.17-.51,13.77-1.09,27.44-1.72,40.98v385.17c0,30.18,24.46,54.64,54.64,54.64h442.49c30.18,0,54.64-24.46,54.64-54.64V135.78c0-30.18-24.46-54.64-54.64-54.64Z"/>
</svg>